<svg xmlns="http://www.w3.org/2000/svg" version="1.1" xmlns:xlink="http://www.w3.org/1999/xlink" xmlns:svgjs="http://svgjs.com/svgjs" width="512" height="530"><svg width="512" height="530" viewBox="0 0 512 530" fill="none" xmlns="http://www.w3.org/2000/svg">
<style>
    path { fill: #D0A85C; }
</style>
<path d="M80.7528 153.282C80.7528 154.389 80.271 154.942 79.3073 154.942C78.8943 154.942 78.0224 153.888 76.6916 151.781C74.3512 148.146 72.3321 145.327 70.6342 143.325C68.9822 141.323 66.7795 140.322 64.0261 140.322H46.7487V232.388C46.7487 235.812 47.8959 237.998 50.1904 238.947C52.4849 239.895 53.6321 241.028 53.6321 242.345C53.6321 243.399 53.1732 243.925 52.2554 243.925H28.9206C27.9569 243.925 27.475 243.399 27.475 242.345C27.475 241.028 28.6223 239.895 30.9168 238.947C33.2112 237.998 34.3585 235.812 34.3585 232.388V140.322H16.8057C14.0524 140.322 11.8038 141.323 10.06 143.325C8.36205 145.327 6.36585 148.146 4.07137 151.781C2.78646 153.888 1.93751 154.942 1.5245 154.942C0.560821 154.942 0.0789809 154.389 0.0789809 153.282V138.663C0.0789809 135.818 0.491987 134.105 1.318 133.526C2.1899 132.894 4.3926 132.578 7.9261 132.578H72.9057C76.7146 132.578 78.9631 132.841 79.6515 133.368C80.3857 133.895 80.7528 135.66 80.7528 138.663V153.282Z"></path>
<path d="M113.518 144.589V232.309C113.518 235.786 114.665 237.998 116.96 238.947C119.254 239.842 120.401 240.949 120.401 242.266C120.401 243.372 119.92 243.925 118.956 243.925H95.621C94.7032 243.925 94.2444 243.372 94.2444 242.266C94.2444 240.949 95.3916 239.842 97.6861 238.947C99.9806 237.998 101.128 235.812 101.128 232.388V144.589C101.128 141.165 99.9806 139.005 97.6861 138.109C95.3916 137.161 94.2444 136.002 94.2444 134.632C94.2444 133.526 94.7262 132.973 95.6899 132.973H118.956C119.92 132.973 120.401 133.526 120.401 134.632C120.401 136.002 119.254 137.161 116.96 138.109C114.665 139.005 113.518 141.165 113.518 144.589Z"></path>
<path d="M161.082 236.497H190.475C194.742 236.497 198.345 234.627 201.282 230.886C204.265 227.093 206.513 224.143 208.028 222.035C208.854 220.876 209.496 220.297 209.955 220.297C210.919 220.297 211.4 220.85 211.4 221.956C211.4 222.641 211.355 223.194 211.263 223.616L206.238 243.925H142.979C142.153 243.925 141.74 243.372 141.74 242.266C141.74 240.949 142.887 239.842 145.182 238.947C147.476 237.998 148.623 235.812 148.623 232.388V144.589C148.623 141.165 147.476 139.005 145.182 138.109C142.887 137.161 141.74 136.002 141.74 134.632C141.74 133.526 142.222 132.973 143.186 132.973H207.064V153.282C207.064 154.389 206.582 154.942 205.618 154.942C205.159 154.942 204.31 153.888 203.071 151.781C200.777 148.146 198.781 145.327 197.083 143.325C195.431 141.323 193.228 140.322 190.475 140.322H161.082V183.233H176.846C179.782 183.233 181.71 181.89 182.628 179.203C183.545 176.463 184.601 175.094 185.794 175.094C186.712 175.094 187.171 175.647 187.171 176.753V196.826C187.171 197.932 186.712 198.485 185.794 198.485C184.601 198.485 183.477 197.142 182.421 194.455C181.366 191.768 179.369 190.425 176.433 190.425H161.082V236.497Z"></path>
<path d="M304.189 238.236C305.474 239.447 307.149 240.159 309.214 240.369C310.499 240.527 311.141 241.081 311.141 242.029V242.266C311.004 243.372 310.522 243.925 309.696 243.925H291.317C290.904 243.925 289.344 241.871 286.636 237.761C283.929 233.652 280.785 228.752 277.206 223.063C273.627 217.373 269.955 211.551 266.193 205.598C262.43 199.644 259.286 194.85 256.762 191.215H245.749V232.388C245.749 235.812 246.896 237.998 249.19 238.947C251.485 239.842 252.632 240.949 252.632 242.266C252.632 243.372 252.173 243.925 251.255 243.925H227.921C226.957 243.925 226.475 243.372 226.475 242.266C226.475 240.949 227.622 239.842 229.917 238.947C232.211 237.998 233.359 235.812 233.359 232.388V144.589C233.359 141.218 232.211 139.058 229.917 138.109C227.622 137.161 226.475 136.002 226.475 134.632C226.475 133.526 226.957 132.973 227.921 132.973H268.533C273.26 132.973 278.193 133.947 283.332 135.897C288.472 137.793 292.441 141.507 295.241 147.039C297.443 151.517 298.545 156.891 298.545 163.161C298.453 169.114 296.962 174.461 294.07 179.203C291.776 182.944 288.587 185.815 284.502 187.817C280.418 189.766 276.541 190.873 272.87 191.136L304.189 238.236ZM245.749 139.532V185.683H261.718C264.885 185.683 268.097 185.156 271.355 184.103C274.613 183.049 277.413 181.179 279.753 178.492C283.424 174.435 285.26 169.061 285.26 162.37C285.26 155.943 283.355 150.569 279.546 146.249C275.462 141.771 269.978 139.532 263.095 139.532H245.749Z"></path>
<path d="M398.354 238.236C399.639 239.447 401.314 240.159 403.379 240.369C404.664 240.527 405.307 241.081 405.307 242.029V242.266C405.169 243.372 404.687 243.925 403.861 243.925H385.482C385.069 243.925 383.509 241.871 380.802 237.761C378.094 233.652 374.951 228.752 371.371 223.063C367.792 217.373 364.121 211.551 360.358 205.598C356.595 199.644 353.452 194.85 350.928 191.215H339.914V232.388C339.914 235.812 341.061 237.998 343.356 238.947C345.65 239.842 346.798 240.949 346.798 242.266C346.798 243.372 346.339 243.925 345.421 243.925H322.086C321.122 243.925 320.641 243.372 320.641 242.266C320.641 240.949 321.788 239.842 324.082 238.947C326.377 237.998 327.524 235.812 327.524 232.388V144.589C327.524 141.218 326.377 139.058 324.082 138.109C321.788 137.161 320.641 136.002 320.641 134.632C320.641 133.526 321.122 132.973 322.086 132.973H362.698C367.425 132.973 372.358 133.947 377.498 135.897C382.637 137.793 386.607 141.507 389.406 147.039C391.609 151.517 392.71 156.891 392.71 163.161C392.618 169.114 391.127 174.461 388.236 179.203C385.941 182.944 382.752 185.815 378.668 187.817C374.584 189.766 370.706 190.873 367.035 191.136L398.354 238.236ZM339.914 139.532V185.683H355.884C359.05 185.683 362.262 185.156 365.521 184.103C368.779 183.049 371.578 181.179 373.918 178.492C377.589 174.435 379.425 169.061 379.425 162.37C379.425 155.943 377.521 150.569 373.712 146.249C369.628 141.771 364.144 139.532 357.26 139.532H339.914Z"></path>
<path d="M463.265 131.155C465.56 137.372 468.382 144.985 471.732 153.994C475.128 163.003 478.615 172.275 482.195 181.811C485.82 191.347 489.308 200.619 492.658 209.628C496.053 218.637 498.921 226.224 501.262 232.388C501.95 234.337 503.304 236.102 505.323 237.682C506.378 238.473 507.411 239.131 508.421 239.658C509.476 240.185 510.325 240.685 510.967 241.16C511.426 241.528 511.725 241.897 511.862 242.266C511.954 242.477 512 242.687 512 242.898C512 243.056 511.954 243.241 511.862 243.451C511.725 243.767 511.449 243.925 511.036 243.925H487.77C487.357 243.925 486.944 243.767 486.531 243.451C486.072 243.082 485.797 242.687 485.705 242.266C485.613 242.108 485.568 241.95 485.568 241.792C485.568 241.318 485.843 240.817 486.394 240.29C486.807 239.816 487.311 239.316 487.908 238.789C488.505 238.262 488.94 237.551 489.216 236.655C489.353 236.234 489.422 235.759 489.422 235.233C489.422 234.337 489.239 233.362 488.872 232.309L478.684 205.282H438.554C436.902 209.812 435.25 214.343 433.598 218.874C431.992 223.352 430.362 227.83 428.71 232.309C428.297 233.362 428.068 234.311 428.022 235.154C427.976 235.522 427.953 235.891 427.953 236.26C427.953 236.787 428.022 237.287 428.16 237.761C428.297 238.446 428.527 239.026 428.848 239.5C429.169 239.921 429.399 240.369 429.536 240.843C429.582 241.265 429.605 241.555 429.605 241.713C429.605 241.871 429.559 242.055 429.468 242.266C429.146 243.372 428.642 243.925 427.953 243.925H410.194C409.735 243.925 409.414 243.767 409.23 243.451C409.23 243.399 409.184 243.267 409.093 243.056C409.093 242.951 409.139 242.687 409.23 242.266C409.506 241.581 410.286 240.896 411.571 240.211C412.259 239.842 412.993 239.447 413.773 239.026C414.599 238.552 415.425 237.998 416.251 237.366C417.949 235.996 419.188 234.337 419.968 232.388L458.998 131.155H463.265ZM476.275 198.88L458.309 150.754C455.372 158.814 452.435 166.849 449.498 174.857C446.607 182.865 443.716 190.872 440.825 198.88H476.275Z"></path>
<path d="M116.921 271.18V357.17C116.921 360.524 118.167 362.665 120.659 363.594C123.2 364.471 124.471 365.555 124.471 366.845C124.471 367.928 123.948 368.47 122.901 368.47H97.5593C96.5127 368.47 95.9894 367.928 95.9894 366.845C95.9894 365.555 97.2353 364.471 99.7272 363.594C102.219 362.665 103.465 360.524 103.465 357.17V274.276L60.3314 370.792H57.4159L14.7309 277.913V357.17C14.7309 360.524 15.9768 362.665 18.4687 363.594C20.9605 364.471 22.2064 365.555 22.2064 366.845C22.2064 367.928 21.6831 368.47 20.6366 368.47H1.64883C0.602265 368.47 0.0789809 367.928 0.0789809 366.845C0.0789809 365.555 1.32489 364.471 3.81672 363.594C6.30855 362.665 7.55446 360.524 7.55446 357.17V271.18C7.55446 267.877 6.30855 265.762 3.81672 264.833C1.32489 263.904 0.0789809 262.769 0.0789809 261.427C0.0789809 260.344 0.602265 259.802 1.64883 259.802H21.5336L62.4245 346.644L102.045 259.802H122.901C123.948 259.802 124.471 260.344 124.471 261.427C124.471 262.769 123.2 263.904 120.659 264.833C118.167 265.762 116.921 267.877 116.921 271.18Z"></path>
<path d="M165.287 361.195H197.207C201.842 361.195 205.754 359.363 208.944 355.699C212.183 351.984 214.625 349.095 216.27 347.031C217.167 345.895 217.865 345.328 218.363 345.328C219.41 345.328 219.933 345.87 219.933 346.953C219.933 347.624 219.883 348.166 219.783 348.579L214.326 368.47H145.627C144.73 368.47 144.281 367.928 144.281 366.845C144.281 365.555 145.527 364.471 148.019 363.594C150.511 362.665 151.757 360.524 151.757 357.17V271.18C151.757 267.826 150.511 265.71 148.019 264.833C145.527 263.904 144.281 262.769 144.281 261.427C144.281 260.344 144.804 259.802 145.851 259.802H215.223V279.693C215.223 280.777 214.7 281.319 213.654 281.319C213.155 281.319 212.233 280.287 210.888 278.223C208.396 274.663 206.228 271.902 204.384 269.941C202.59 267.98 200.198 267 197.207 267H165.287V309.028H182.406C185.596 309.028 187.689 307.712 188.685 305.08C189.682 302.397 190.828 301.056 192.124 301.056C193.121 301.056 193.619 301.597 193.619 302.681V322.34C193.619 323.424 193.121 323.966 192.124 323.966C190.828 323.966 189.607 322.65 188.461 320.018C187.315 317.387 185.147 316.071 181.957 316.071H165.287V361.195Z"></path>
<path d="M338.419 307.248C338.519 308.95 338.569 310.601 338.569 312.201C338.569 320.767 337.049 328.455 334.009 335.266C330.321 343.419 325.188 350.127 318.609 355.39C307.446 364.265 293.841 368.806 277.793 369.012H271.813C268.922 369.012 266.206 368.986 263.664 368.935H254.918C250.782 368.935 247.642 368.857 245.499 368.702H243.705C241.711 368.702 239.12 368.857 235.93 369.167C234.884 369.167 234.361 368.599 234.361 367.464C234.361 366.174 235.607 365.065 238.098 364.136C240.59 363.207 241.836 361.066 241.836 357.712V270.793C241.836 267.49 240.59 265.4 238.098 264.523C235.607 263.594 234.361 262.459 234.361 261.118C234.361 260.034 234.884 259.492 235.93 259.492C238.024 259.544 240.142 259.57 242.285 259.57C244.378 259.57 246.521 259.544 248.714 259.492C252.999 259.338 257.186 259.209 261.272 259.105H265.683C273.308 259.105 280.983 259.312 288.707 259.725C297.827 260.292 306.05 262.201 313.376 265.452C320.254 268.6 325.96 273.45 330.495 280.003C335.03 286.505 337.672 295.586 338.419 307.248ZM256.114 266.845V360.73C262.294 361.917 268.225 362.51 273.906 362.51C276.099 362.51 278.242 362.433 280.335 362.278C287.96 361.659 294.713 359.75 300.593 356.551C307.62 352.732 313.152 346.902 317.189 339.059C320.877 331.835 322.721 322.65 322.721 311.504V308.95C322.521 300.591 321.076 293.599 318.385 287.975C315.744 282.299 312.23 277.758 307.845 274.353C301.416 269.399 293.616 266.484 284.446 265.607C281.307 265.349 278.142 265.22 274.952 265.22C268.823 265.22 262.543 265.762 256.114 266.845Z"></path>
<path d="M377.367 271.18V357.092C377.367 360.498 378.612 362.665 381.104 363.594C383.596 364.471 384.842 365.555 384.842 366.845C384.842 367.928 384.319 368.47 383.272 368.47H357.93C356.934 368.47 356.435 367.928 356.435 366.845C356.435 365.555 357.681 364.471 360.173 363.594C362.665 362.665 363.911 360.524 363.911 357.17V271.18C363.911 267.826 362.665 265.71 360.173 264.833C357.681 263.904 356.435 262.769 356.435 261.427C356.435 260.344 356.959 259.802 358.005 259.802H383.272C384.319 259.802 384.842 260.344 384.842 261.427C384.842 262.769 383.596 263.904 381.104 264.833C378.612 265.71 377.367 267.826 377.367 271.18Z"></path>
<path d="M459.074 258.022C461.565 264.11 464.63 271.567 468.268 280.39C471.956 289.214 475.744 298.295 479.631 307.634C483.568 316.974 487.356 326.055 490.994 334.879C494.682 343.702 497.797 351.133 500.338 357.17C501.086 359.079 502.556 360.808 504.749 362.356C505.895 363.13 507.016 363.775 508.113 364.291C509.259 364.807 510.181 365.297 510.879 365.761C511.377 366.122 511.701 366.484 511.85 366.845C511.95 367.051 512 367.258 512 367.464C512 367.619 511.95 367.799 511.85 368.006C511.701 368.315 511.402 368.47 510.953 368.47H485.686C485.238 368.47 484.789 368.315 484.341 368.006C483.842 367.645 483.543 367.258 483.444 366.845C483.344 366.69 483.294 366.535 483.294 366.38C483.294 365.916 483.593 365.426 484.191 364.91C484.64 364.445 485.188 363.955 485.836 363.439C486.484 362.923 486.957 362.227 487.256 361.349C487.406 360.937 487.48 360.472 487.48 359.956C487.48 359.079 487.281 358.124 486.882 357.092L475.819 330.622H432.237C430.442 335.06 428.648 339.497 426.854 343.935C425.11 348.321 423.341 352.707 421.547 357.092C421.098 358.124 420.849 359.053 420.799 359.879C420.749 360.24 420.724 360.601 420.724 360.962C420.724 361.478 420.799 361.969 420.949 362.433C421.098 363.104 421.347 363.671 421.696 364.136C422.045 364.549 422.294 364.987 422.444 365.452C422.494 365.864 422.518 366.148 422.518 366.303C422.518 366.458 422.469 366.638 422.369 366.845C422.02 367.928 421.472 368.47 420.724 368.47H401.438C400.939 368.47 400.59 368.315 400.391 368.006C400.391 367.954 400.341 367.825 400.242 367.619C400.242 367.516 400.291 367.258 400.391 366.845C400.69 366.174 401.537 365.503 402.933 364.832C403.68 364.471 404.478 364.084 405.325 363.671C406.222 363.207 407.119 362.665 408.016 362.046C409.86 360.704 411.206 359.079 412.053 357.17L454.439 258.022H459.074ZM473.202 324.353L453.691 277.217C450.502 285.111 447.312 292.98 444.123 300.823C440.983 308.667 437.843 316.51 434.704 324.353H473.202Z"></path>
<path fill-rule="evenodd" clip-rule="evenodd" d="M274.488 1.27993C268.953 -0.43246 263.021 -0.426491 257.489 1.29704L79.7161 56.6824C67.8654 60.3745 59.8031 71.2639 59.8031 83.578V102.633L0 102.963L0.0789989 117.059L512 114.239L511.921 100.143L473.606 100.354V83.611C473.606 71.2758 465.516 60.3729 453.638 56.6984L274.488 1.27993ZM244.742 101.615C252.565 101.572 258.884 95.2733 258.884 87.5187V27.1625C258.884 21.4508 253.29 17.3813 247.793 19.0939L93.9361 67.0283C82.0854 70.7203 74.0231 81.6097 74.0231 93.9238C74.0231 98.6829 77.9291 102.533 82.7299 102.507L244.742 101.615Z"></path>
<path fill-rule="evenodd" clip-rule="evenodd" d="M421.943 399.481L512 398.985L511.921 384.889L0 387.708L0.0789989 401.804L109.686 401.2C122.898 430.094 136.89 452.248 158.826 471.889C180.421 491.226 211.665 508.765 254.527 527.418C261.473 530.441 269.386 530.496 276.366 527.553C319.224 509.48 350.202 491.951 371.66 472.415C393.87 452.193 407.956 429.196 421.943 399.481ZM399.982 411.678C402.943 406.15 398.785 399.608 392.471 399.643L286.72 400.225C278.898 400.268 272.579 406.567 272.579 414.321V501.101C272.579 507.159 278.818 511.25 284.398 508.781C320.085 492.995 344.045 478.417 362.041 462.033C377.812 447.673 389.26 431.695 399.982 411.678Z"></path>
</svg>